<?xml version="1.0" encoding="UTF-8" standalone="no"?>
<!-- Created with Inkscape (http://www.inkscape.org/) -->

<svg
   xmlns:dc="http://purl.org/dc/elements/1.1/"
   xmlns:cc="http://creativecommons.org/ns#"
   xmlns:rdf="http://www.w3.org/1999/02/22-rdf-syntax-ns#"
   xmlns:svg="http://www.w3.org/2000/svg"
   xmlns="http://www.w3.org/2000/svg"
   xmlns:sodipodi="http://sodipodi.sourceforge.net/DTD/sodipodi-0.dtd"
   xmlns:inkscape="http://www.inkscape.org/namespaces/inkscape"
   id="svg4756"
   version="1.1"
   inkscape:version="0.91 r13725"
   xml:space="preserve"
   width="1366"
   height="655.34436"
   viewBox="0 0 1366 655.34436"
   sodipodi:docname="BannerBackground.svg"><metadata
     id="metadata4762"><rdf:RDF><cc:Work
         rdf:about=""><dc:format>image/svg+xml</dc:format><dc:type
           rdf:resource="http://purl.org/dc/dcmitype/StillImage" /><dc:title></dc:title></cc:Work></rdf:RDF></metadata><defs
     id="defs4760"><linearGradient
       x1="0"
       y1="0"
       x2="1"
       y2="0"
       gradientUnits="userSpaceOnUse"
       gradientTransform="matrix(0,612,-792,0,792,0)"
       spreadMethod="pad"
       id="linearGradient4776"><stop
         style="stop-opacity:1;stop-color:#000000"
         offset="0"
         id="stop4778" /><stop
         style="stop-opacity:1;stop-color:#333333"
         offset="1"
         id="stop4780" /></linearGradient><linearGradient
       x1="0"
       y1="0"
       x2="1"
       y2="0"
       gradientUnits="userSpaceOnUse"
       gradientTransform="matrix(0,503.54022,-283.28428,0,766.7802,17.136)"
       spreadMethod="pad"
       id="linearGradient4796"><stop
         style="stop-opacity:1;stop-color:#1a1a1a"
         offset="0"
         id="stop4798" /><stop
         style="stop-opacity:1;stop-color:#666666"
         offset="1"
         id="stop4800" /></linearGradient><linearGradient
       x1="0"
       y1="0"
       x2="1"
       y2="0"
       gradientUnits="userSpaceOnUse"
       gradientTransform="matrix(0,158.06608,-136.89014,0,721.921,22.1666)"
       spreadMethod="pad"
       id="linearGradient4814"><stop
         style="stop-opacity:1;stop-color:#990000"
         offset="0"
         id="stop4816" /><stop
         style="stop-opacity:1;stop-color:#ff0000"
         offset="1"
         id="stop4818" /></linearGradient><linearGradient
       x1="0"
       y1="0"
       x2="1"
       y2="0"
       gradientUnits="userSpaceOnUse"
       gradientTransform="matrix(0,108.12076,-93.63628,0,627.4613,177.825)"
       spreadMethod="pad"
       id="linearGradient4832"><stop
         style="stop-opacity:1;stop-color:#ff0000"
         offset="0"
         id="stop4834" /><stop
         style="stop-opacity:1;stop-color:#ff6600"
         offset="1"
         id="stop4836" /></linearGradient><linearGradient
       x1="0"
       y1="0"
       x2="1"
       y2="0"
       gradientUnits="userSpaceOnUse"
       gradientTransform="matrix(0,80.16661,-69.42671,0,733.7741,185.8793)"
       spreadMethod="pad"
       id="linearGradient4850"><stop
         style="stop-opacity:1;stop-color:#ff0000"
         offset="0"
         id="stop4852" /><stop
         style="stop-opacity:1;stop-color:#ff6600"
         offset="1"
         id="stop4854" /></linearGradient><linearGradient
       x1="0"
       y1="0"
       x2="1"
       y2="0"
       gradientUnits="userSpaceOnUse"
       gradientTransform="matrix(0,40.79962,-35.33443,0,550.7813,137.6303)"
       spreadMethod="pad"
       id="linearGradient4868"><stop
         style="stop-opacity:1;stop-color:#ff6600"
         offset="0"
         id="stop4870" /><stop
         style="stop-opacity:1;stop-color:#ffcc00"
         offset="1"
         id="stop4872" /></linearGradient><linearGradient
       x1="0"
       y1="0"
       x2="1"
       y2="0"
       gradientUnits="userSpaceOnUse"
       gradientTransform="matrix(0,40.79962,-35.33443,0,759.0847,261.0921)"
       spreadMethod="pad"
       id="linearGradient4886"><stop
         style="stop-opacity:1;stop-color:#ff6600"
         offset="0"
         id="stop4888" /><stop
         style="stop-opacity:1;stop-color:#ffcc00"
         offset="1"
         id="stop4890" /></linearGradient><linearGradient
       x1="0"
       y1="0"
       x2="1"
       y2="0"
       gradientUnits="userSpaceOnUse"
       gradientTransform="matrix(0,40.80019,-35.33386,0,568.4754,371.6351)"
       spreadMethod="pad"
       id="linearGradient4904"><stop
         style="stop-opacity:1;stop-color:#ffcc00"
         offset="0"
         id="stop4906" /><stop
         style="stop-opacity:1;stop-color:#ffff00"
         offset="1"
         id="stop4908" /></linearGradient><linearGradient
       x1="0"
       y1="0"
       x2="1"
       y2="0"
       gradientUnits="userSpaceOnUse"
       gradientTransform="matrix(0,40.79962,-35.33386,0,716.7266,347.3569)"
       spreadMethod="pad"
       id="linearGradient4922"><stop
         style="stop-opacity:1;stop-color:#ffcc00"
         offset="0"
         id="stop4924" /><stop
         style="stop-opacity:1;stop-color:#ffff00"
         offset="1"
         id="stop4926" /></linearGradient><linearGradient
       x1="0"
       y1="0"
       x2="1"
       y2="0"
       gradientUnits="userSpaceOnUse"
       gradientTransform="matrix(0,61.53846,-53.29417,0,691.6141,272.16)"
       spreadMethod="pad"
       id="linearGradient4940"><stop
         style="stop-opacity:1;stop-color:#ff6600"
         offset="0"
         id="stop4942" /><stop
         style="stop-opacity:1;stop-color:#ffcc00"
         offset="1"
         id="stop4944" /></linearGradient><linearGradient
       x1="0"
       y1="0"
       x2="1"
       y2="0"
       gradientUnits="userSpaceOnUse"
       gradientTransform="matrix(0,61.53789,-53.29417,0,543.363,296.4382)"
       spreadMethod="pad"
       id="linearGradient4958"><stop
         style="stop-opacity:1;stop-color:#ff6600"
         offset="0"
         id="stop4960" /><stop
         style="stop-opacity:1;stop-color:#ffcc00"
         offset="1"
         id="stop4962" /></linearGradient><linearGradient
       x1="0"
       y1="0"
       x2="1"
       y2="0"
       gradientUnits="userSpaceOnUse"
       gradientTransform="matrix(0,20.95597,-18.14854,0,659.6337,357.7391)"
       spreadMethod="pad"
       id="linearGradient4976"><stop
         style="stop-opacity:1;stop-color:#ffff00"
         offset="0"
         id="stop4978" /><stop
         style="stop-opacity:1;stop-color:#ffffcc"
         offset="1"
         id="stop4980" /></linearGradient><linearGradient
       x1="0"
       y1="0"
       x2="1"
       y2="0"
       gradientUnits="userSpaceOnUse"
       gradientTransform="matrix(0,20.95654,-18.14854,0,707.4,425.3995)"
       spreadMethod="pad"
       id="linearGradient4994"><stop
         style="stop-opacity:1;stop-color:#ffff00"
         offset="0"
         id="stop4996" /><stop
         style="stop-opacity:1;stop-color:#ffffcc"
         offset="1"
         id="stop4998" /></linearGradient><linearGradient
       x1="0"
       y1="0"
       x2="1"
       y2="0"
       gradientUnits="userSpaceOnUse"
       gradientTransform="matrix(0,20.95654,-18.14854,0,760.2072,331.2519)"
       spreadMethod="pad"
       id="linearGradient5012"><stop
         style="stop-opacity:1;stop-color:#ffff00"
         offset="0"
         id="stop5014" /><stop
         style="stop-opacity:1;stop-color:#ffffcc"
         offset="1"
         id="stop5016" /></linearGradient><linearGradient
       x1="0"
       y1="0"
       x2="1"
       y2="0"
       gradientUnits="userSpaceOnUse"
       gradientTransform="matrix(0,20.95654,-18.14854,0,526.5079,424.5537)"
       spreadMethod="pad"
       id="linearGradient5030"><stop
         style="stop-opacity:1;stop-color:#ffff00"
         offset="0"
         id="stop5032" /><stop
         style="stop-opacity:1;stop-color:#ffffcc"
         offset="1"
         id="stop5034" /></linearGradient><linearGradient
       x1="0"
       y1="0"
       x2="1"
       y2="0"
       gradientUnits="userSpaceOnUse"
       gradientTransform="matrix(0,20.95654,-18.14854,0,562.4728,493.3514)"
       spreadMethod="pad"
       id="linearGradient5048"><stop
         style="stop-opacity:1;stop-color:#ffff00"
         offset="0"
         id="stop5050" /><stop
         style="stop-opacity:1;stop-color:#ffffcc"
         offset="1"
         id="stop5052" /></linearGradient></defs><sodipodi:namedview
     pagecolor="#ffffff"
     bordercolor="#666666"
     borderopacity="1"
     objecttolerance="10"
     gridtolerance="10"
     guidetolerance="10"
     inkscape:pageopacity="0"
     inkscape:pageshadow="2"
     inkscape:window-width="1366"
     inkscape:window-height="745"
     id="namedview4758"
     showgrid="false"
     inkscape:zoom="0.43628026"
     inkscape:cx="879.85817"
     inkscape:cy="176.84254"
     inkscape:window-x="-8"
     inkscape:window-y="-8"
     inkscape:window-maximized="1"
     inkscape:current-layer="g4764"
     fit-margin-top="0"
     fit-margin-left="0"
     fit-margin-right="0"
     fit-margin-bottom="0" /><g
     id="g4764"
     inkscape:groupmode="layer"
     inkscape:label="carbonfire"
     transform="matrix(1.25,0,0,-1.25,384.85817,669.76822)"><rect
       style="opacity:1;fill:#f6f7f8;fill-opacity:1;stroke:none;stroke-width:5;stroke-linecap:round;stroke-linejoin:round;stroke-miterlimit:4;stroke-dasharray:none;stroke-opacity:1"
       id="rect5692"
       width="1092.8"
       height="524.27551"
       x="-307.88654"
       y="-535.81458"
       transform="scale(1,-1)" /><g
       id="g4786"><g
         id="g4788"><g
           id="g4794"><path
             d="m 665.0827,181.1214 51.6141,-29.7989 c 3.7497,-2.1649 7.4421,-4.2707 9.6449,-8.2046 2.1081,-3.7647 2.1523,-7.8342 2.1523,-12.009 l 0,-59.5984 c 0,-4.3297 0.0224,-8.5797 -2.2827,-12.4543 -2.2059,-3.7083 -5.7087,-5.7822 -9.324,-7.8696 L 665.2735,21.3877 c -3.75,-2.1648 -7.4191,-4.3095 -11.9279,-4.2503 -4.3144,0.0564 -7.8608,2.0532 -11.4764,4.1406 l -51.6141,29.7989 c -3.7493,2.1648 -7.4417,4.2707 -9.6445,8.2046 -2.1085,3.7647 -2.1524,7.8341 -2.1524,12.009 l 0,59.5984 c 0,4.3297 -0.0221,8.5802 2.283,12.4546 2.2057,3.7077 5.7087,5.7821 9.3237,7.8693 l 51.6141,29.7989 c 3.7494,2.1645 7.4191,4.3095 11.9276,4.2505 4.3144,-0.0567 7.8608,-2.0534 11.4761,-4.1408 z m -75.4617,107.2309 35.305,-20.3836 c 2.9375,-1.696 5.6398,-3.3046 7.3709,-6.3958 1.6495,-2.9452 1.7371,-5.9672 1.7371,-9.2291 l 0,-40.7667 c 0,-3.3917 -0.0423,-6.5367 -1.8536,-9.5811 -1.726,-2.9013 -4.2993,-4.4884 -7.1243,-6.1194 l -35.305,-20.3828 c -2.9378,-1.6966 -5.682,-3.2327 -9.225,-3.1859 -3.3755,0.0442 -6.0355,1.4794 -8.8608,3.1107 l -35.305,20.3828 c -2.9375,1.6963 -5.6401,3.305 -7.3712,6.3964 -1.6492,2.9455 -1.7368,5.967 -1.7368,9.2288 l 0,40.7667 c 0,3.3917 0.0423,6.5367 1.8536,9.5811 1.726,2.9016 4.2993,4.4887 7.1243,6.1197 l 35.3049,20.3828 c 2.9376,1.6963 5.6821,3.2321 9.2246,3.1856 3.3757,-0.0439 6.0358,-1.4791 8.8613,-3.1102 z m 116.9462,-19.0508 26.1768,-15.1132 c 2.4755,-1.4289 4.638,-2.7759 6.0985,-5.3835 1.3875,-2.4778 1.5043,-4.9312 1.5043,-7.6734 l 0,-30.2264 c 0,-2.8579 -0.0853,-5.4048 -1.6132,-7.973 -1.4519,-2.4403 -3.5181,-3.7687 -5.8929,-5.1398 L 706.6636,182.679 c -2.475,-1.4292 -4.7234,-2.6288 -7.712,-2.5894 -2.8394,0.0371 -5.0221,1.1625 -7.397,2.5336 l -26.1774,15.1129 c -2.4749,1.4289 -4.6377,2.7765 -6.0979,5.3838 -1.3875,2.4778 -1.5049,4.9309 -1.5049,7.6734 l 0,30.2264 c 0,2.8579 0.0853,5.4048 1.6132,7.973 1.4522,2.4404 3.5184,3.769 5.8935,5.1401 l 26.1769,15.1132 c 2.4752,1.4289 4.7228,2.6288 7.7116,2.5894 2.8398,-0.0371 5.0221,-1.1627 7.3976,-2.5339 z m -168.0191,-86.4195 13.3223,-7.6915 c 1.8022,-1.0409 3.2453,-2.0645 4.3055,-3.9575 1.004,-1.7926 1.1775,-3.4948 1.1775,-5.4833 l 0,-15.3831 c 0,-2.0817 -0.1652,-3.8435 -1.275,-5.7087 -1.05,-1.764 -2.4375,-2.7666 -4.1587,-3.7599 l -13.3228,-7.692 c -1.8029,-1.0409 -3.4104,-1.7785 -5.5809,-1.7502 -2.0534,0.027 -3.6147,0.7277 -5.3362,1.7215 l -13.3223,7.6918 c -1.802,1.0403 -3.2454,2.0651 -4.3055,3.9578 -1.0038,1.7917 -1.1778,3.4951 -1.1778,5.4827 l 0,15.3837 c 0,2.0809 0.1658,3.8435 1.275,5.7078 1.0499,1.7649 2.4378,2.7672 4.159,3.761 l 13.3225,7.6918 c 1.802,1.0401 3.4107,1.7779 5.5795,1.7496 2.0545,-0.0264 3.6158,-0.7274 5.3379,-1.7215 z m 208.3036,123.4618 13.322,-7.6915 c 1.8026,-1.0412 3.246,-2.0647 4.3061,-3.9589 1.0032,-1.7914 1.177,-3.4942 1.177,-5.4813 l 0,-15.3836 c 0,-2.0818 -0.1653,-3.8435 -1.275,-5.7087 -1.05,-1.764 -2.4375,-2.7666 -4.1587,-3.7605 l -13.3226,-7.6915 c -1.8028,-1.0409 -3.4106,-1.7784 -5.5811,-1.7501 -2.054,0.0272 -3.6145,0.7279 -5.3363,1.7218 l -13.3222,7.6918 c -1.8023,1.0409 -3.2454,2.0644 -4.3056,3.9574 -1.0037,1.7918 -1.178,3.4951 -1.178,5.4828 l 0,15.3836 c 0,2.0806 0.1661,3.8432 1.275,5.7073 1.0499,1.7651 2.4378,2.7677 4.1593,3.7616 l 13.3225,7.6918 c 1.8031,1.0406 3.4107,1.7784 5.5811,1.7498 2.0532,-0.0269 3.6151,-0.7279 5.3365,-1.7218 z m -190.6089,110.5436 13.3223,-7.6916 c 1.8025,-1.0411 3.2459,-2.065 4.3061,-3.9588 1.0032,-1.7915 1.1769,-3.4946 1.1769,-5.4819 l 0,-15.3831 c 0,-2.0818 -0.1652,-3.8441 -1.275,-5.709 -1.0502,-1.7645 -2.4381,-2.7666 -4.159,-3.7604 l -13.3225,-7.6915 c -1.8026,-1.0406 -3.4113,-1.7785 -5.5809,-1.7499 -2.0534,0.027 -3.6147,0.7277 -5.3362,1.7215 l -13.3223,7.6915 c -1.802,1.0406 -3.2454,2.0654 -4.3058,3.9581 -1.0035,1.7917 -1.1778,3.4951 -1.1778,5.4827 l 0,15.3834 c 0,2.0812 0.1653,3.8432 1.2745,5.7078 1.0502,1.7651 2.4383,2.7675 4.1598,3.7613 l 13.3223,7.6912 c 1.8025,1.0409 3.4115,1.7788 5.5814,1.7502 2.0528,-0.027 3.615,-0.728 5.3362,-1.7215 z m 148.2511,-24.2782 13.3223,-7.6918 c 1.8028,-1.0412 3.2462,-2.0648 4.3064,-3.9589 1.0029,-1.7915 1.1769,-3.494 1.1769,-5.4816 l 0,-15.3834 c 0,-2.0817 -0.1655,-3.8435 -1.2753,-5.7086 -1.0499,-1.764 -2.4375,-2.7664 -4.1587,-3.7599 l -13.3228,-7.6921 c -1.8026,-1.0406 -3.4104,-1.7785 -5.5809,-1.7498 -2.0534,0.0269 -3.6147,0.7276 -5.3362,1.7214 l -13.3223,7.6916 c -1.8019,1.0403 -3.2453,2.065 -4.3055,3.9577 -1.0038,1.7918 -1.1778,3.4951 -1.1778,5.4828 l 0,15.3836 c 0,2.0806 0.1658,3.8429 1.2745,5.7067 1.0496,1.7654 2.4378,2.768 4.1595,3.7624 l 13.3226,7.6916 c 1.802,1.04 3.4103,1.7778 5.5794,1.7495 2.0546,-0.0261 3.6159,-0.7271 5.3379,-1.7212 z m -33.0012,-55.0891 20.0945,-11.601 c 2.1609,-1.2479 3.975,-2.4336 5.2501,-4.7098 1.2084,-2.1583 1.3495,-4.2466 1.3495,-6.6362 l 0,-23.2027 c 0,-2.4951 -0.1196,-4.6593 -1.453,-6.9012 -1.2651,-2.1263 -3.0033,-3.2925 -5.0729,-4.4876 L 671.567,268.3809 c -2.1612,-1.2479 -4.0947,-2.2267 -6.7034,-2.1926 -2.4741,0.0323 -4.3526,0.9544 -6.4225,2.1495 l -20.0939,11.6013 c -2.1612,1.2475 -3.9753,2.433 -5.2501,4.7089 -1.2087,2.1586 -1.3498,4.2469 -1.3498,6.6368 l 0,23.2027 c 0,2.4953 0.1193,4.659 1.4533,6.9012 1.2651,2.126 3.0027,3.2922 5.0723,4.487 l 20.0942,11.6019 c 2.1618,1.2478 4.0947,2.2263 6.7043,2.192 2.4738,-0.0326 4.3514,-0.9547 6.4213,-2.1495 z m -148.2511,24.2782 20.0942,-11.6014 c 2.1611,-1.2478 3.9753,-2.4329 5.2501,-4.7094 1.2084,-2.1586 1.3495,-4.2463 1.3495,-6.6359 l 0,-23.2027 c 0,-2.4954 -0.119,-4.6594 -1.453,-6.9013 -1.2648,-2.1262 -3.003,-3.2927 -5.0726,-4.4875 l -20.094,-11.6011 c -2.1614,-1.2478 -4.0946,-2.2263 -6.7033,-2.1923 -2.4741,0.0323 -4.3526,0.9544 -6.4225,2.1492 l -20.0939,11.6017 c -2.1615,1.2475 -3.9753,2.433 -5.2504,4.7089 -1.2087,2.1586 -1.3495,4.2466 -1.3495,6.6365 l 0,23.2027 c 0,2.495 0.1193,4.659 1.4527,6.9009 1.2651,2.1263 3.003,3.2927 5.0726,4.4878 l 20.0945,11.6011 c 2.1609,1.2478 4.0938,2.2266 6.7031,2.1923 2.4744,-0.032 4.3526,-0.9544 6.4225,-2.1495 z m 131.7073,21.9521 6.8425,-3.9504 c 1.4431,-0.8331 2.5625,-1.7388 3.4033,-3.24 0.7945,-1.4199 1.0117,-2.7916 1.0117,-4.3775 l 0,-7.9013 c 0,-1.6668 -0.2248,-3.0889 -1.105,-4.5678 -0.832,-1.3977 -1.912,-2.272 -3.2851,-3.0648 l -6.8419,-3.9504 c -1.442,-0.8325 -2.7862,-1.3487 -4.5051,-1.3266 -1.6277,0.0207 -2.9257,0.519 -4.2996,1.3122 l -6.8429,3.9503 c -1.4431,0.8331 -2.5619,1.7391 -3.4027,3.2403 -0.7948,1.4196 -1.0119,2.7916 -1.0119,4.3776 l 0,7.9013 c 0,1.6662 0.2247,3.0877 1.1043,4.566 0.832,1.3989 1.9114,2.2725 3.2851,3.0657 l 6.8434,3.9509 c 1.4434,0.8334 2.7865,1.3499 4.5074,1.3269 1.6265,-0.0215 2.9233,-0.5193 4.2965,-1.3124 z m 47.7666,67.6607 6.8425,-3.9504 c 1.4431,-0.8331 2.5623,-1.739 3.4027,-3.2403 0.7951,-1.4195 1.012,-2.7915 1.012,-4.3775 l 0,-7.9013 c 0,-1.6662 -0.2248,-3.0878 -1.1041,-4.566 -0.832,-1.3987 -1.9117,-2.2731 -3.2854,-3.0657 l -6.8431,-3.9509 c -1.4437,-0.8334 -2.7867,-1.3499 -4.5073,-1.3269 -1.6274,0.0215 -2.9228,0.5193 -4.2962,1.3124 l -6.8434,3.9509 c -1.442,0.8329 -2.5606,1.7377 -3.401,3.2375 -0.7957,1.4199 -1.0137,2.7932 -1.0137,4.3795 l 0,7.9016 c 0,1.6656 0.2248,3.0878 1.1038,4.5655 0.832,1.3991 1.9123,2.2736 3.2862,3.0668 l 6.842,3.95 c 1.4434,0.8337 2.7873,1.3502 4.5082,1.3272 1.6268,-0.0212 2.9231,-0.5196 4.2968,-1.3124 z m 52.8066,-94.1474 6.8434,-3.9512 c 1.4431,-0.8331 2.5622,-1.7385 3.4027,-3.2397 0.7948,-1.4193 1.012,-2.7916 1.012,-4.3773 l 0,-7.9015 c 0,-1.6668 -0.2248,-3.089 -1.105,-4.5675 -0.832,-1.3978 -1.912,-2.272 -3.2851,-3.0645 l -6.8419,-3.9504 c -1.4434,-0.8334 -2.7873,-1.3502 -4.5083,-1.3272 -1.627,0.0216 -2.9228,0.5196 -4.2962,1.3127 l -6.8428,3.9504 c -1.4431,0.8331 -2.5625,1.7388 -3.403,3.24 -0.7951,1.4199 -1.0119,2.7916 -1.0119,4.3775 l 0,7.9013 c 0,1.6662 0.2247,3.0881 1.104,4.5664 0.8323,1.3986 1.9117,2.2725 3.2857,3.0653 l 6.8425,3.9513 c 1.4434,0.8331 2.7871,1.3495 4.5077,1.3266 1.6274,-0.0213 2.9228,-0.5196 4.2962,-1.3122 z m -233.699,93.3015 6.8434,-3.9509 c 1.4429,-0.8331 2.5617,-1.7385 3.4024,-3.2397 0.7946,-1.4193 1.0117,-2.7916 1.0117,-4.3773 l 0,-7.9016 c 0,-1.6667 -0.2248,-3.0889 -1.1046,-4.5674 -0.832,-1.3975 -1.912,-2.272 -3.2845,-3.0643 l -6.8429,-3.9512 c -1.4434,-0.8331 -2.7873,-1.3496 -4.5079,-1.3266 -1.6271,0.0213 -2.9228,0.5193 -4.2962,1.3122 l -6.8434,3.9512 c -1.4431,0.8331 -2.5617,1.7385 -3.4024,3.2397 -0.7946,1.419 -1.0123,2.7918 -1.0123,4.3775 l 0,7.9013 c 0,1.6648 0.2251,3.087 1.1033,4.5644 0.8319,1.3992 1.9122,2.2739 3.2865,3.0673 l 6.8428,3.951 c 1.4434,0.8331 2.7867,1.3498 4.5076,1.3269 1.6268,-0.0216 2.9231,-0.5196 4.2965,-1.3125 z m 35.9652,68.7974 6.8428,-3.9503 c 1.4431,-0.8331 2.5619,-1.7388 3.4027,-3.24 0.7948,-1.4199 1.012,-2.7916 1.012,-4.3776 l 0,-7.9013 c 0,-1.6659 -0.2245,-3.0877 -1.1036,-4.566 -0.8322,-1.3986 -1.9122,-2.2728 -3.2859,-3.066 l -6.8425,-3.9509 c -1.4437,-0.8331 -2.7873,-1.3496 -4.5083,-1.3266 -1.6259,0.0213 -2.9236,0.5196 -4.2961,1.3122 l -6.8429,3.9503 c -1.4431,0.8331 -2.5622,1.7388 -3.4027,3.24 -0.7948,1.4199 -1.012,2.7916 -1.012,4.3779 l 0,7.9012 c 0,1.6657 0.2245,3.0875 1.1036,4.5658 0.8322,1.3983 1.9125,2.2737 3.2862,3.0665 l 6.842,3.9504 c 1.4419,0.8328 2.7861,1.3487 4.5051,1.3266 1.6276,-0.0207 2.9256,-0.5187 4.2996,-1.3122"
             style="fill:url(#linearGradient4796);fill-rule:evenodd;stroke:none"
             id="path4802"
             inkscape:connector-curvature="0" /></g></g></g><g
       id="g4804"><g
         id="g4806"><g
           id="g4812"><path
             d="m 661.7965,175.4291 25.9021,-14.9544 25.712,-14.8445 c 2.7448,-1.6019 5.8031,-3.2372 7.1963,-5.7237 1.3513,-2.4143 1.0743,-5.656 1.3141,-8.7976 l 0,-29.9095 0,-29.6889 c -0.015,-3.1785 0.0987,-6.6447 -1.3586,-9.0942 -1.4145,-2.3777 -4.3614,-3.7587 -6.9616,-5.5372 L 687.6986,41.9247 661.987,27.0802 c -2.7604,-1.5766 -5.7053,-3.4078 -8.5553,-3.3707 -2.7666,0.0366 -5.4354,1.8981 -8.276,3.261 l -25.9021,14.9542 -25.712,14.8447 c -2.7447,1.6016 -5.803,3.2372 -7.1963,5.7235 -1.3513,2.4142 -1.074,5.656 -1.3141,8.7976 l 0,29.9089 0,29.6895 c 0.015,3.1785 -0.0987,6.6447 1.3589,9.0941 1.4139,2.3777 4.3614,3.7588 6.9613,5.5372 l 25.9022,14.9545 25.7119,14.8444 c 2.7598,1.5767 5.7053,3.4079 8.555,3.3707 2.7666,-0.0365 5.4354,-1.8978 8.276,-3.2607"
             style="fill:url(#linearGradient4814);fill-rule:evenodd;stroke:none"
             id="path4820"
             inkscape:connector-curvature="0" /></g></g></g><g
       id="g4822"><g
         id="g4824"><g
           id="g4830"><path
             d="m 586.3346,282.6598 17.7173,-10.2291 17.5876,-10.1543 c 1.8777,-1.0955 3.9696,-2.2141 4.9224,-3.9149 0.9246,-1.6512 0.735,-3.869 0.8991,-6.0177 l 0,-20.4584 0,-20.3083 c -0.0105,-2.1739 0.0675,-4.5451 -0.9292,-6.2203 -0.9677,-1.6266 -2.9835,-2.5711 -4.7622,-3.7877 L 604.0519,191.34 586.4647,181.186 c -1.8882,-1.0783 -3.9025,-2.3312 -5.8519,-2.306 -1.8924,0.0255 -3.7179,1.2986 -5.6611,2.2306 l -17.7173,10.2294 -17.5876,10.154 c -1.8777,1.0956 -3.9696,2.2138 -4.9224,3.9149 -0.9246,1.6515 -0.735,3.869 -0.8994,6.0177 l 0,20.4588 0,20.3079 c 0.0108,2.1739 -0.0672,4.5451 0.9295,6.2207 0.9675,1.6265 2.9835,2.571 4.7622,3.7876 l 17.7177,10.2291 17.5872,10.1543 c 1.8882,1.078 3.9025,2.3306 5.8519,2.3054 1.8924,-0.0252 3.7179,-1.2983 5.6611,-2.2306"
             style="fill:url(#linearGradient4832);fill-rule:evenodd;stroke:none"
             id="path4838"
             inkscape:connector-curvature="0" /></g></g></g><g
       id="g4840"><g
         id="g4842"><g
           id="g4848"><path
             d="m 703.2807,263.6093 13.1369,-7.5844 13.0399,-7.5288 c 1.3921,-0.8124 2.9435,-1.6415 3.6499,-2.903 0.6854,-1.2242 0.5451,-2.8683 0.6667,-4.4617 l 0,-15.1688 0,-15.0576 c -0.008,-1.6121 0.0499,-3.3704 -0.6894,-4.6122 -0.7174,-1.2062 -2.2121,-1.9066 -3.5305,-2.8083 l -13.1366,-7.5844 -13.0402,-7.5291 c -1.4001,-0.7994 -2.8939,-1.7283 -4.3393,-1.7093 -1.4029,0.0184 -2.7567,0.9626 -4.197,1.6537 l -13.1372,7.5847 -13.0402,7.5285 c -1.3921,0.8124 -2.9429,1.6416 -3.6496,2.903 -0.6854,1.2246 -0.5448,2.8684 -0.6667,4.4617 l 0,15.1693 0,15.0571 c 0.008,1.6121 -0.0502,3.3704 0.6891,4.6123 0.7175,1.2061 2.2122,1.9066 3.5308,2.8085 l 13.1366,7.5844 13.0405,7.5288 c 1.3998,0.7994 2.8934,1.7283 4.3387,1.7096 1.4035,-0.0187 2.7567,-0.9629 4.1976,-1.654"
             style="fill:url(#linearGradient4850);fill-rule:evenodd;stroke:none"
             id="path4856"
             inkscape:connector-curvature="0" /></g></g></g><g
       id="g4858"><g
         id="g4860"><g
           id="g4866"><path
             d="m 535.2616,177.1894 6.6858,-3.8599 6.6365,-3.8316 c 0.7086,-0.4133 1.4981,-0.8353 1.8575,-1.4771 0.349,-0.6231 0.2775,-1.4599 0.3393,-2.2711 l 0,-7.7199 0,-7.6632 c -0.004,-0.8203 0.0255,-1.7152 -0.3506,-2.3474 -0.3654,-0.6137 -1.1257,-0.9703 -1.7969,-1.4292 l -6.6858,-3.8602 -6.6368,-3.8313 c -0.7126,-0.4074 -1.4726,-0.8799 -2.2081,-0.8702 -0.7141,0.009 -1.4029,0.4898 -2.1362,0.8416 l -6.6855,3.8599 -6.6368,3.8316 c -0.7087,0.4136 -1.4981,0.8359 -1.8575,1.4777 -0.349,0.623 -0.2776,1.4598 -0.3396,2.2705 l 0,7.7202 0,7.6635 c 0.004,0.8203 -0.0253,1.7149 0.3512,2.347 0.3651,0.614 1.1253,0.9703 1.7966,1.4293 l 6.6861,3.8599 6.6364,3.8319 c 0.7124,0.4068 1.4726,0.8793 2.2082,0.8699 0.7143,-0.009 1.4032,-0.4898 2.1362,-0.8419"
             style="fill:url(#linearGradient4868);fill-rule:evenodd;stroke:none"
             id="path4874"
             inkscape:connector-curvature="0" /></g></g></g><g
       id="g4876"><g
         id="g4878"><g
           id="g4884"><path
             d="m 743.565,300.6519 6.6855,-3.8602 6.6367,-3.8319 c 0.7087,-0.4133 1.4982,-0.8354 1.8576,-1.4772 0.3486,-0.623 0.2772,-1.4598 0.339,-2.2705 l 0,-7.7204 0,-7.6632 c -0.004,-0.8204 0.0258,-1.7153 -0.3506,-2.3474 -0.3651,-0.6137 -1.1257,-0.97 -1.7966,-1.4292 l -6.6861,-3.86 -6.6365,-3.8316 c -0.7126,-0.4067 -1.4726,-0.8798 -2.2082,-0.8702 -0.7143,0.009 -1.4031,0.4901 -2.1362,0.8419 l -6.6858,3.8599 -6.6364,3.8319 c -0.7087,0.4133 -1.4981,0.8354 -1.8576,1.4771 -0.3489,0.6231 -0.2775,1.4599 -0.3396,2.2706 l 0,7.7202 0,7.6634 c 0.004,0.8204 -0.0252,1.7153 0.351,2.3471 0.3648,0.614 1.1256,0.9703 1.7968,1.4295 l 6.6858,3.86 6.6368,3.8315 c 0.7121,0.4068 1.4723,0.8799 2.2082,0.8703 0.7138,-0.01 1.4029,-0.4901 2.1362,-0.8416"
             style="fill:url(#linearGradient4886);fill-rule:evenodd;stroke:none"
             id="path4892"
             inkscape:connector-curvature="0" /></g></g></g><g
       id="g4894"><g
         id="g4896"><g
           id="g4902"><path
             d="m 552.9563,411.1948 6.6855,-3.8599 6.6368,-3.8316 c 0.7086,-0.4133 1.4978,-0.8354 1.8575,-1.4771 0.3487,-0.6234 0.2773,-1.4604 0.339,-2.2711 l 0,-7.7199 0,-7.6632 c -0.004,-0.8203 0.0258,-1.7152 -0.3506,-2.3477 -0.3651,-0.6134 -1.1256,-0.97 -1.7969,-1.4292 l -6.6858,-3.8599 -6.6364,-3.8316 c -0.7127,-0.4071 -1.4729,-0.8796 -2.2082,-0.87 -0.7144,0.009 -1.4032,0.4899 -2.1362,0.8416 l -6.6858,3.86 -6.6368,3.8316 c -0.7084,0.4135 -1.4978,0.8359 -1.8572,1.4777 -0.3493,0.623 -0.2775,1.4598 -0.3396,2.2705 l 0,7.7202 0,7.6632 c 0.004,0.8206 -0.0253,1.7152 0.3506,2.3473 0.3651,0.6137 1.1259,0.9703 1.7972,1.4293 l 6.6858,3.8599 6.6365,3.8319 c 0.7123,0.4067 1.4726,0.8793 2.2084,0.8699 0.7138,-0.01 1.4029,-0.4901 2.1362,-0.8419"
             style="fill:url(#linearGradient4904);fill-rule:evenodd;stroke:none"
             id="path4910"
             inkscape:connector-curvature="0" /></g></g></g><g
       id="g4912"><g
         id="g4914"><g
           id="g4920"><path
             d="m 701.2074,386.9167 6.6858,-3.86 6.6365,-3.8318 c 0.7087,-0.4133 1.4981,-0.8354 1.8575,-1.4772 0.3487,-0.623 0.2776,-1.4598 0.3394,-2.2708 l 0,-7.7199 0,-7.6635 c -0.004,-0.8203 0.0255,-1.7152 -0.3507,-2.347 -0.3651,-0.614 -1.1256,-0.9706 -1.7969,-1.4296 l -6.6858,-3.8602 -6.6367,-3.8313 c -0.7127,-0.407 -1.4726,-0.8799 -2.2082,-0.8702 -0.7141,0.01 -1.4029,0.4901 -2.1362,0.8416 l -6.6855,3.8599 -6.6368,3.8319 c -0.7086,0.4133 -1.4978,0.8357 -1.8575,1.4774 -0.349,0.6231 -0.2772,1.4599 -0.3396,2.2706 l 0,7.7204 0,7.6632 c 0.004,0.8203 -0.0252,1.7149 0.3512,2.3474 0.3648,0.6137 1.1256,0.97 1.7966,1.4292 l 6.6861,3.8599 6.6365,3.8316 c 0.7123,0.4068 1.4723,0.8796 2.2081,0.87 0.7144,-0.009 1.4032,-0.4899 2.1362,-0.8416"
             style="fill:url(#linearGradient4922);fill-rule:evenodd;stroke:none"
             id="path4928"
             inkscape:connector-curvature="0" /></g></g></g><g
       id="g4930"><g
         id="g4932"><g
           id="g4938"><path
             d="m 668.2062,331.8279 10.0843,-5.8221 10.0102,-5.7793 c 1.0684,-0.6236 2.259,-1.2603 2.8012,-2.2286 0.5261,-0.9399 0.4184,-2.2019 0.5122,-3.4248 l 0,-11.6442 0,-11.5585 c -0.006,-1.2373 0.038,-2.5869 -0.5292,-3.5405 -0.5508,-0.9258 -1.6982,-1.4632 -2.7102,-2.1557 l -10.0842,-5.8221 -10.01,-5.7793 c -1.0746,-0.6134 -2.2213,-1.3266 -3.3307,-1.3121 -1.0769,0.0141 -2.1161,0.739 -3.2222,1.2696 l -10.0839,5.8218 -10.01,5.7793 c -1.0687,0.6239 -2.2595,1.2603 -2.8018,2.2286 -0.5261,0.9397 -0.4184,2.2019 -0.5116,3.4248 l 0,11.6441 0,11.5586 c 0.006,1.2373 -0.0386,2.5869 0.5292,3.5405 0.5505,0.9258 1.6976,1.4635 2.7099,2.1554 l 10.0843,5.8224 10.0099,5.7793 c 1.0749,0.6134 2.221,1.3266 3.3307,1.3121 1.0772,-0.0144 2.1161,-0.739 3.2219,-1.2693"
             style="fill:url(#linearGradient4940);fill-rule:evenodd;stroke:none"
             id="path4946"
             inkscape:connector-curvature="0" /></g></g></g><g
       id="g4948"><g
         id="g4950"><g
           id="g4956"><path
             d="m 519.9551,356.106 10.084,-5.8223 10.0102,-5.779 c 1.0684,-0.6236 2.2592,-1.26 2.8015,-2.2283 0.5261,-0.94 0.4184,-2.202 0.5117,-3.4248 l 0,-11.6442 0,-11.5585 c -0.006,-1.2377 0.0385,-2.5872 -0.529,-3.5405 -0.5508,-0.9258 -1.6979,-1.4635 -2.7102,-2.1561 l -10.0842,-5.8217 -10.0097,-5.7793 c -1.0747,-0.614 -2.2216,-1.3266 -3.331,-1.3122 -1.0769,0.0139 -2.1161,0.739 -3.2219,1.2694 l -10.0842,5.8221 -10.01,5.7792 c -1.0687,0.6236 -2.2592,1.2603 -2.8015,2.2283 -0.5264,0.9397 -0.4184,2.202 -0.5119,3.4249 l 0,11.6444 0,11.5583 c 0.006,1.2373 -0.0383,2.5869 0.5292,3.5404 0.5505,0.9258 1.6976,1.4633 2.7099,2.1558 l 10.0843,5.8218 10.0102,5.7795 c 1.0744,0.6137 2.221,1.3267 3.3304,1.3125 1.0775,-0.0145 2.1161,-0.7393 3.2222,-1.2697"
             style="fill:url(#linearGradient4958);fill-rule:evenodd;stroke:none"
             id="path4964"
             inkscape:connector-curvature="0" /></g></g></g><g
       id="g4966"><g
         id="g4968"><g
           id="g4974"><path
             d="m 651.6624,378.0584 3.4339,-1.9828 3.4089,-1.9679 c 0.364,-0.2128 0.7696,-0.4294 0.9541,-0.7588 0.1792,-0.3203 0.1423,-0.75 0.1744,-1.1664 l 0,-3.9654 0,-3.9359 c -0.002,-0.4218 0.013,-0.881 -0.1803,-1.2059 -0.1877,-0.3152 -0.5783,-0.498 -0.923,-0.7342 l -3.4341,-1.9822 -3.4087,-1.9684 c -0.3657,-0.2089 -0.7563,-0.4516 -1.1342,-0.4468 -0.3668,0.005 -0.7208,0.2515 -1.0972,0.4323 l -3.4342,1.9829 -3.4087,1.9678 c -0.3637,0.2123 -0.7693,0.4291 -0.9541,0.7588 -0.1792,0.32 -0.1423,0.7501 -0.1741,1.1665 l 0,3.9651 0,3.9362 c 0.002,0.4212 -0.0133,0.8807 0.18,1.2053 0.1877,0.3154 0.5786,0.4986 0.9233,0.7341 l 3.4336,1.9829 3.4092,1.9678 c 0.3657,0.2092 0.756,0.4521 1.1342,0.447 0.3665,-0.005 0.7202,-0.2517 1.097,-0.432"
             style="fill:url(#linearGradient4976);fill-rule:evenodd;stroke:none"
             id="path4982"
             inkscape:connector-curvature="0" /></g></g></g><g
       id="g4984"><g
         id="g4986"><g
           id="g4992"><path
             d="m 699.429,445.7188 3.4339,-1.9828 3.4086,-1.9678 c 0.364,-0.2123 0.7694,-0.4292 0.9542,-0.7588 0.1791,-0.3201 0.1423,-0.7498 0.174,-1.1665 l 0,-3.9651 0,-3.9362 c -0.002,-0.4212 0.0133,-0.8807 -0.18,-1.2053 -0.1876,-0.3155 -0.5783,-0.4986 -0.9227,-0.7342 l -3.4341,-1.9828 -3.409,-1.9678 c -0.3659,-0.2092 -0.7563,-0.4521 -1.1341,-0.447 -0.3668,0.005 -0.7206,0.2517 -1.097,0.4323 l -3.4342,1.9825 -3.4087,1.9681 c -0.3639,0.2123 -0.7693,0.4289 -0.9541,0.7591 -0.1794,0.3198 -0.1426,0.7495 -0.1743,1.1659 l 0,3.9654 0,3.9362 c 0.002,0.4215 -0.0128,0.8807 0.18,1.2056 0.1876,0.3152 0.5785,0.498 0.9232,0.7341 l 3.4339,1.9823 3.4087,1.9684 c 0.3659,0.2089 0.7562,0.4518 1.1344,0.447 0.3665,-0.005 0.7206,-0.2517 1.0973,-0.4326"
             style="fill:url(#linearGradient4994);fill-rule:evenodd;stroke:none"
             id="path5000"
             inkscape:connector-curvature="0" /></g></g></g><g
       id="g5002"><g
         id="g5004"><g
           id="g5010"><path
             d="m 752.2359,351.5712 3.4341,-1.9826 3.409,-1.9681 c 0.364,-0.2123 0.7693,-0.4288 0.9541,-0.7588 0.1792,-0.3197 0.1423,-0.7498 0.1741,-1.1662 l 0,-3.9654 0,-3.9361 c -0.002,-0.4213 0.0133,-0.8808 -0.18,-1.2056 -0.1877,-0.315 -0.5786,-0.4981 -0.9233,-0.7342 l -3.4339,-1.9823 -3.4086,-1.9683 c -0.366,-0.209 -0.7563,-0.4519 -1.1342,-0.4468 -0.3668,0.005 -0.7208,0.2517 -1.0972,0.4323 l -3.4339,1.9828 -3.409,1.9678 c -0.364,0.2124 -0.7693,0.4295 -0.9541,0.7589 -0.1792,0.3203 -0.1423,0.7497 -0.1741,1.1664 l 0,3.9651 0,3.9362 c 0.002,0.4213 -0.0133,0.8808 0.18,1.2056 0.1877,0.3155 0.5783,0.4983 0.9233,0.7342 l 3.4339,1.9825 3.4086,1.9681 c 0.366,0.2089 0.7563,0.4519 1.1342,0.447 0.3668,-0.005 0.7208,-0.252 1.097,-0.4325"
             style="fill:url(#linearGradient5012);fill-rule:evenodd;stroke:none"
             id="path5018"
             inkscape:connector-curvature="0" /></g></g></g><g
       id="g5020"><g
         id="g5022"><g
           id="g5028"><path
             d="m 518.5369,444.873 3.4339,-1.9826 3.4089,-1.9681 c 0.3637,-0.2123 0.7694,-0.4289 0.9539,-0.7588 0.1792,-0.3198 0.1423,-0.7498 0.1743,-1.1662 l 0,-3.9654 0,-3.9362 c -0.002,-0.4212 0.0131,-0.8807 -0.1802,-1.2055 -0.1877,-0.3152 -0.578,-0.4981 -0.9227,-0.7342 l -3.4342,-1.9826 -3.4087,-1.968 c -0.3659,-0.209 -0.7565,-0.4519 -1.1344,-0.4471 -0.3668,0.005 -0.7203,0.252 -1.097,0.4326 l -3.4339,1.9825 -3.4089,1.9681 c -0.364,0.2124 -0.7693,0.4292 -0.9539,0.7589 -0.1791,0.3203 -0.1429,0.7497 -0.1746,1.1664 l 0,3.9651 0,3.9362 c 0.002,0.4213 -0.0128,0.8808 0.1806,1.2056 0.1871,0.3155 0.578,0.4983 0.9226,0.7342 l 3.4342,1.9825 3.4087,1.9681 c 0.3659,0.2089 0.7565,0.4519 1.1341,0.4468 0.3668,-0.005 0.7206,-0.2518 1.0973,-0.4323"
             style="fill:url(#linearGradient5030);fill-rule:evenodd;stroke:none"
             id="path5036"
             inkscape:connector-curvature="0" /></g></g></g><g
       id="g5038"><g
         id="g5040"><g
           id="g5046"><path
             d="m 554.5018,513.6704 3.4341,-1.9826 3.4087,-1.9681 c 0.3637,-0.2123 0.7693,-0.4291 0.9541,-0.7588 0.1792,-0.32 0.1423,-0.7498 0.1741,-1.1662 l 0,-3.9651 0,-3.9362 c -0.002,-0.4215 0.0133,-0.8812 -0.18,-1.2058 -0.1874,-0.3152 -0.5783,-0.4983 -0.923,-0.7339 l -3.4339,-1.9828 -3.4086,-1.9678 c -0.3663,-0.209 -0.7566,-0.4519 -1.1347,-0.4471 -0.3663,0.005 -0.7203,0.2517 -1.097,0.4323 l -3.4339,1.9826 -3.4087,1.9681 c -0.3642,0.2126 -0.7693,0.4291 -0.9541,0.7588 -0.1792,0.32 -0.1426,0.75 -0.1741,1.1665 l 0,3.9653 0,3.9359 c 0.002,0.4213 -0.0133,0.8811 0.18,1.2056 0.1874,0.3152 0.578,0.4983 0.923,0.7342 l 3.4339,1.9825 3.4086,1.9681 c 0.3663,0.2092 0.7566,0.4516 1.1342,0.4468 0.3668,-0.005 0.7208,-0.2515 1.0973,-0.4323"
             style="fill:url(#linearGradient5048);fill-rule:evenodd;stroke:none"
             id="path5054"
             inkscape:connector-curvature="0" /></g></g></g><path
       d="M 716.2744,60.0395 660.0268,27.7784 c -2.1911,-1.2566 -3.9835,0.0975 -3.9835,3.0087 l 0,63.7971 c 0,2.9117 1.7924,6.3215 3.9835,7.5784 l 56.2476,32.2611 c 2.1909,1.2566 3.9833,-0.0975 3.9833,-3.0092 l 0,-63.7969 c 0,-2.9114 -1.7924,-6.3215 -3.9833,-7.5781"
       style="fill:#ffffff;fill-opacity:0.5;fill-rule:evenodd;stroke:none"
       id="path5056"
       inkscape:connector-curvature="0" /><path
       d="m 590.5826,60.169 56.2475,-32.2611 c 2.1915,-1.2568 3.9836,0.0973 3.9836,3.0087 l 0,63.7968 c 0,2.9118 -1.7921,6.3219 -3.9836,7.5785 l -56.2475,32.2611 c -2.1909,1.2566 -3.9833,-0.0973 -3.9833,-3.009 l 0,-63.7971 c 0,-2.9112 1.7924,-6.3215 3.9833,-7.5779"
       style="fill:#000000;fill-opacity:0.5;fill-rule:evenodd;stroke:none"
       id="path5058"
       inkscape:connector-curvature="0" /><path
       d="M 657.5258,176.3614 713.5886,143.78 c 2.1841,-1.2693 1.9074,-3.4985 -0.614,-4.9541 l -55.2498,-31.8985 c -2.5217,-1.4559 -6.3708,-1.6087 -8.5547,-0.3396 l -56.0627,32.5814 c -2.1838,1.2691 -1.9075,3.4985 0.6142,4.9544 l 55.2498,31.8983 c 2.5212,1.4558 6.3709,1.6083 8.5544,0.3395"
       style="fill:#ffffff;fill-opacity:0.8;fill-rule:evenodd;stroke:none"
       id="path5060"
       inkscape:connector-curvature="0" /><path
       d="m 623.5988,203.7311 -38.4752,-22.0677 c -1.4984,-0.8592 -2.7244,0.0669 -2.7244,2.0582 l 0,43.6388 c 0,1.9913 1.226,4.324 2.7244,5.1834 l 38.4752,22.0675 c 1.4984,0.8594 2.7244,-0.0666 2.7244,-2.058 l 0,-43.6391 c 0,-1.9913 -1.226,-4.3239 -2.7244,-5.1831"
       style="fill:#ffffff;fill-opacity:0.5;fill-rule:evenodd;stroke:none"
       id="path5062"
       inkscape:connector-curvature="0" /><path
       d="m 537.6223,203.8195 38.4752,-22.0677 c 1.4984,-0.8592 2.7244,0.0669 2.7244,2.0582 l 0,43.6389 c 0,1.9913 -1.226,4.3239 -2.7244,5.1834 l -38.4752,22.0674 c -1.4984,0.8595 -2.7244,-0.0666 -2.7244,-2.0579 l 0,-43.6388 c 0,-1.9917 1.226,-4.324 2.7244,-5.1835"
       style="fill:#000000;fill-opacity:0.5;fill-rule:evenodd;stroke:none"
       id="path5064"
       inkscape:connector-curvature="0" /><path
       d="m 583.4129,283.2976 38.3488,-22.2865 c 1.4933,-0.868 1.3045,-2.3931 -0.4201,-3.3886 l -37.7924,-21.8194 c -1.7246,-0.9958 -4.3577,-1.1001 -5.8512,-0.2324 l -38.3488,22.2868 c -1.4933,0.868 -1.3043,2.3927 0.4203,3.3885 l 37.7924,21.8194 c 1.7246,0.9959 4.3577,1.1002 5.851,0.2322"
       style="fill:#ffffff;fill-opacity:0.8;fill-rule:evenodd;stroke:none"
       id="path5066"
       inkscape:connector-curvature="0" /><path
       d="M 730.9103,205.0875 702.383,188.7253 c -1.1112,-0.6372 -2.02,0.0493 -2.02,1.5259 l 0,32.3566 c 0,1.4766 0.9088,3.2055 2.02,3.843 l 28.5273,16.3618 c 1.1111,0.6375 2.0202,-0.049 2.0202,-1.5256 l 0,-32.3566 c 0,-1.4766 -0.9091,-3.2057 -2.0202,-3.8429"
       style="fill:#ffffff;fill-opacity:0.5;fill-rule:evenodd;stroke:none"
       id="path5068"
       inkscape:connector-curvature="0" /><path
       d="m 667.1628,205.1529 28.5276,-16.3621 c 1.1111,-0.6372 2.0199,0.0493 2.0199,1.5259 l 0,32.3566 c 0,1.4769 -0.9088,3.2057 -2.0199,3.843 l -28.5276,16.3621 c -1.1112,0.6372 -2.02,-0.049 -2.02,-1.5259 l 0,-32.3566 c 0,-1.4766 0.9088,-3.2057 2.02,-3.843"
       style="fill:#000000;fill-opacity:0.5;fill-rule:evenodd;stroke:none"
       id="path5070"
       inkscape:connector-curvature="0" /><path
       d="m 701.1145,264.0821 28.4337,-16.5243 c 1.1075,-0.6437 0.9672,-1.7739 -0.3115,-2.5123 l -28.0216,-16.1782 c -1.279,-0.7384 -3.2307,-0.8158 -4.3382,-0.1723 l -28.4334,16.5245 c -1.1075,0.6438 -0.9678,1.7739 0.3112,2.5124 l 28.0216,16.1781 c 1.2787,0.7385 3.2307,0.8159 4.3382,0.1721"
       style="fill:#ffffff;fill-opacity:0.8;fill-rule:evenodd;stroke:none"
       id="path5072"
       inkscape:connector-curvature="0" /><path
       d="m 549.3234,147.4058 -14.5187,-8.3273 c -0.5656,-0.3243 -1.0279,0.0249 -1.0279,0.7767 l 0,16.467 c 0,0.7518 0.4623,1.6316 1.0279,1.9559 l 14.5187,8.3273 c 0.5655,0.3243 1.0282,-0.0252 1.0282,-0.7766 l 0,-16.4671 c 0,-0.7517 -0.4627,-1.6316 -1.0282,-1.9559"
       style="fill:#ffffff;fill-opacity:0.5;fill-rule:evenodd;stroke:none"
       id="path5074"
       inkscape:connector-curvature="0" /><path
       d="m 516.8801,147.439 14.5185,-8.3271 c 0.5655,-0.3242 1.0281,0.025 1.0281,0.7767 l 0,16.4671 c 0,0.7514 -0.4626,1.6316 -1.0281,1.9559 l -14.5185,8.3273 c -0.5658,0.3243 -1.0282,-0.0252 -1.0282,-0.7767 l 0,-16.467 c 0,-0.7518 0.4624,-1.6316 1.0282,-1.9562"
       style="fill:#000000;fill-opacity:0.5;fill-rule:evenodd;stroke:none"
       id="path5076"
       inkscape:connector-curvature="0" /><path
       d="m 534.1592,177.4304 14.4709,-8.4098 c 0.5635,-0.3277 0.4924,-0.9029 -0.1588,-1.2787 l -14.2608,-8.2336 c -0.6508,-0.3758 -1.6441,-0.4152 -2.2079,-0.0878 l -14.4709,8.4101 c -0.5638,0.3277 -0.4923,0.9028 0.1585,1.2787 l 14.2611,8.2335 c 0.6508,0.3759 1.6441,0.4153 2.2079,0.0876"
       style="fill:#ffffff;fill-opacity:0.8;fill-rule:evenodd;stroke:none"
       id="path5078"
       inkscape:connector-curvature="0" /><path
       d="m 757.6265,270.8677 -14.5185,-8.3274 c -0.5655,-0.3242 -1.0281,0.0253 -1.0281,0.7767 l 0,16.4673 c 0,0.7515 0.4626,1.6314 1.0281,1.956 l 14.5185,8.327 c 0.5658,0.3246 1.0281,-0.0249 1.0281,-0.7767 l 0,-16.467 c 0,-0.7515 -0.4623,-1.6313 -1.0281,-1.9559"
       style="fill:#ffffff;fill-opacity:0.5;fill-rule:evenodd;stroke:none"
       id="path5080"
       inkscape:connector-curvature="0" /><path
       d="m 725.1831,270.9011 14.5188,-8.3273 c 0.5655,-0.3243 1.0279,0.0252 1.0279,0.7767 l 0,16.467 c 0,0.7518 -0.4624,1.6316 -1.0279,1.9559 l -14.5188,8.3274 c -0.5655,0.3242 -1.0278,-0.025 -1.0278,-0.7767 l 0,-16.4671 c 0,-0.7517 0.4623,-1.6316 1.0278,-1.9559"
       style="fill:#000000;fill-opacity:0.5;fill-rule:evenodd;stroke:none"
       id="path5082"
       inkscape:connector-curvature="0" /><path
       d="m 742.4623,300.8923 14.4711,-8.4099 c 0.5636,-0.3277 0.4921,-0.9028 -0.1587,-1.2787 l -14.2608,-8.2335 c -0.6508,-0.3759 -1.6444,-0.4153 -2.2079,-0.0876 l -14.4709,8.4098 c -0.5638,0.3277 -0.4924,0.9029 0.1585,1.2787 l 14.2608,8.2336 c 0.6511,0.3758 1.6444,0.4152 2.2079,0.0876"
       style="fill:#ffffff;fill-opacity:0.8;fill-rule:evenodd;stroke:none"
       id="path5084"
       inkscape:connector-curvature="0" /><path
       d="m 567.0179,381.4109 -14.5188,-8.327 c -0.5652,-0.3243 -1.0279,0.0249 -1.0279,0.7767 l 0,16.467 c 0,0.7515 0.4627,1.6316 1.0279,1.9559 l 14.5188,8.3273 c 0.5655,0.3243 1.0281,-0.0252 1.0281,-0.7767 l 0,-16.467 c 0,-0.7517 -0.4626,-1.6316 -1.0281,-1.9562"
       style="fill:#ffffff;fill-opacity:0.5;fill-rule:evenodd;stroke:none"
       id="path5086"
       inkscape:connector-curvature="0" /><path
       d="m 534.5745,381.4444 14.5188,-8.3271 c 0.5655,-0.3245 1.0278,0.025 1.0278,0.7767 l 0,16.467 c 0,0.7515 -0.4623,1.6317 -1.0278,1.9559 l -14.5188,8.3271 c -0.5655,0.3246 -1.0281,-0.0249 -1.0281,-0.7764 l 0,-16.4673 c 0,-0.7515 0.4626,-1.6314 1.0281,-1.9559"
       style="fill:#000000;fill-opacity:0.5;fill-rule:evenodd;stroke:none"
       id="path5088"
       inkscape:connector-curvature="0" /><path
       d="m 551.8536,411.4358 14.4709,-8.4101 c 0.5638,-0.3274 0.4924,-0.9026 -0.1585,-1.2785 l -14.2611,-8.2335 c -0.6508,-0.3758 -1.644,-0.4152 -2.2076,-0.0878 l -14.4711,8.4098 c -0.5636,0.3277 -0.4921,0.9031 0.1587,1.2787 l 14.2608,8.2335 c 0.6512,0.3759 1.6441,0.4153 2.2079,0.0879"
       style="fill:#ffffff;fill-opacity:0.8;fill-rule:evenodd;stroke:none"
       id="path5090"
       inkscape:connector-curvature="0" /><path
       d="m 715.2693,357.1328 -14.5188,-8.3274 c -0.5655,-0.3243 -1.0279,0.0252 -1.0279,0.7767 l 0,16.4673 c 0,0.7515 0.4624,1.6314 1.0279,1.9559 l 14.5188,8.3271 c 0.5655,0.3245 1.0281,-0.025 1.0281,-0.7767 l 0,-16.467 c 0,-0.7518 -0.4626,-1.6317 -1.0281,-1.9559"
       style="fill:#ffffff;fill-opacity:0.5;fill-rule:evenodd;stroke:none"
       id="path5092"
       inkscape:connector-curvature="0" /><path
       d="m 682.8259,357.1662 14.5185,-8.3273 c 0.5655,-0.3243 1.0281,0.0249 1.0281,0.7767 l 0,16.467 c 0,0.7517 -0.4626,1.6316 -1.0281,1.9559 l -14.5185,8.3273 c -0.5658,0.3243 -1.0281,-0.0252 -1.0281,-0.7767 l 0,-16.467 c 0,-0.7517 0.4623,-1.6316 1.0281,-1.9559"
       style="fill:#000000;fill-opacity:0.5;fill-rule:evenodd;stroke:none"
       id="path5094"
       inkscape:connector-curvature="0" /><path
       d="m 700.105,387.1573 14.4709,-8.4098 c 0.5635,-0.3277 0.4924,-0.9028 -0.1587,-1.2787 l -14.2609,-8.2335 c -0.6508,-0.3759 -1.644,-0.4153 -2.2079,-0.0876 l -14.4708,8.4098 c -0.5638,0.3277 -0.4924,0.9028 0.1584,1.2787 l 14.2611,8.2335 c 0.6509,0.3759 1.6441,0.4153 2.2079,0.0876"
       style="fill:#ffffff;fill-opacity:0.8;fill-rule:evenodd;stroke:none"
       id="path5096"
       inkscape:connector-curvature="0" /><path
       d="m 689.4156,286.9047 -21.8985,-12.56 c -0.8529,-0.4893 -1.5505,0.0377 -1.5505,1.1712 l 0,24.8378 c 0,1.1335 0.6976,2.4607 1.5505,2.95 l 21.8985,12.56 c 0.8532,0.4893 1.5508,-0.038 1.5508,-1.1715 l 0,-24.8375 c 0,-1.1336 -0.6976,-2.4607 -1.5508,-2.95"
       style="fill:#ffffff;fill-opacity:0.5;fill-rule:evenodd;stroke:none"
       id="path5098"
       inkscape:connector-curvature="0" /><path
       d="m 640.4814,286.9551 21.8985,-12.56 c 0.8529,-0.4892 1.5505,0.0377 1.5505,1.1713 l 0,24.8374 c 0,1.1336 -0.6976,2.4611 -1.5505,2.9503 l -21.8985,12.5598 c -0.853,0.4895 -1.5506,-0.0377 -1.5506,-1.1713 l 0,-24.8374 c 0,-1.1336 0.6976,-2.4608 1.5506,-2.9501"
       style="fill:#000000;fill-opacity:0.5;fill-rule:evenodd;stroke:none"
       id="path5100"
       inkscape:connector-curvature="0" /><path
       d="m 666.5437,332.1907 21.8262,-12.6847 c 0.8504,-0.4941 0.7427,-1.3615 -0.239,-1.9285 l -21.5098,-12.4188 c -0.9817,-0.5667 -2.4801,-0.6262 -3.3302,-0.1321 l -21.8265,12.6847 c -0.8504,0.4941 -0.7426,1.3618 0.239,1.9284 l 21.5101,12.4189 c 0.9817,0.5667 2.4798,0.6262 3.3302,0.1321"
       style="fill:#ffffff;fill-opacity:0.8;fill-rule:evenodd;stroke:none"
       id="path5102"
       inkscape:connector-curvature="0" /><path
       d="M 541.1645,311.1829 519.266,298.6231 c -0.8532,-0.4892 -1.5509,0.0377 -1.5509,1.1713 l 0,24.8374 c 0,1.1336 0.6977,2.4611 1.5509,2.9503 l 21.8985,12.5598 c 0.8529,0.4892 1.5505,-0.0377 1.5505,-1.1713 l 0,-24.8377 c 0,-1.1336 -0.6976,-2.4605 -1.5505,-2.95"
       style="fill:#ffffff;fill-opacity:0.5;fill-rule:evenodd;stroke:none"
       id="path5104"
       inkscape:connector-curvature="0" /><path
       d="m 492.2303,311.2333 21.8982,-12.56 c 0.8532,-0.4893 1.5508,0.0377 1.5508,1.1713 l 0,24.8377 c 0,1.1336 -0.6976,2.4608 -1.5508,2.95 l -21.8982,12.56 c -0.8533,0.4893 -1.5509,-0.0379 -1.5509,-1.1715 l 0,-24.8375 c 0,-1.1335 0.6976,-2.4607 1.5509,-2.95"
       style="fill:#000000;fill-opacity:0.5;fill-rule:evenodd;stroke:none"
       id="path5106"
       inkscape:connector-curvature="0" /><path
       d="m 518.2923,356.4689 21.8265,-12.6845 c 0.8501,-0.4941 0.7426,-1.3618 -0.239,-1.9287 l -21.5101,-12.4186 c -0.9817,-0.5669 -2.4798,-0.6264 -3.3302,-0.1323 l -21.8265,12.6847 c -0.8504,0.4941 -0.7426,1.3618 0.2393,1.9287 l 21.5098,12.4186 c 0.9817,0.5669 2.4798,0.6264 3.3302,0.1321"
       style="fill:#ffffff;fill-opacity:0.8;fill-rule:evenodd;stroke:none"
       id="path5108"
       inkscape:connector-curvature="0" /><path
       d="m 658.885,362.7604 -7.4573,-4.2772 c -0.2903,-0.1667 -0.5279,0.0127 -0.5279,0.3988 l 0,8.4583 c 0,0.3858 0.2376,0.8379 0.5279,1.0043 l 7.4573,4.2772 c 0.2903,0.1667 0.5279,-0.0127 0.5279,-0.3988 l 0,-8.4583 c 0,-0.3858 -0.2376,-0.8379 -0.5279,-1.0043"
       style="fill:#ffffff;fill-opacity:0.5;fill-rule:evenodd;stroke:none"
       id="path5110"
       inkscape:connector-curvature="0" /><path
       d="m 642.221,362.7774 7.4574,-4.2772 c 0.2903,-0.1664 0.5278,0.013 0.5278,0.3988 l 0,8.4583 c 0,0.3861 -0.2375,0.8379 -0.5278,1.0046 l -7.4574,4.2772 c -0.2905,0.1664 -0.5281,-0.013 -0.5281,-0.3988 l 0,-8.4583 c 0,-0.3861 0.2376,-0.8379 0.5281,-1.0046"
       style="fill:#000000;fill-opacity:0.5;fill-rule:evenodd;stroke:none"
       id="path5112"
       inkscape:connector-curvature="0" /><path
       d="m 651.096,378.1817 7.433,-4.3194 c 0.2894,-0.1684 0.2526,-0.4638 -0.0816,-0.6568 l -7.325,-4.229 c -0.3342,-0.1931 -0.8445,-0.2135 -1.1339,-0.0451 l -7.4327,4.3197 c -0.2894,0.1681 -0.2529,0.4635 0.0813,0.6565 l 7.325,4.2293 c 0.3342,0.1928 0.8445,0.2132 1.1339,0.0448"
       style="fill:#ffffff;fill-opacity:0.8;fill-rule:evenodd;stroke:none"
       id="path5114"
       inkscape:connector-curvature="0" /><path
       d="m 706.6514,430.4211 -7.4574,-4.2772 c -0.2903,-0.1667 -0.5278,0.0128 -0.5278,0.3988 l 0,8.4583 c 0,0.3858 0.2375,0.838 0.5278,1.0044 l 7.4574,4.2772 c 0.2905,0.1666 0.5281,-0.0128 0.5281,-0.3989 l 0,-8.4583 c 0,-0.3858 -0.2376,-0.8379 -0.5281,-1.0043"
       style="fill:#ffffff;fill-opacity:0.5;fill-rule:evenodd;stroke:none"
       id="path5116"
       inkscape:connector-curvature="0" /><path
       d="m 689.9873,430.4381 7.4574,-4.2772 c 0.2903,-0.1664 0.5278,0.0131 0.5278,0.3988 l 0,8.4583 c 0,0.3861 -0.2375,0.838 -0.5278,1.0046 l -7.4574,4.2772 c -0.2902,0.1664 -0.5278,-0.013 -0.5278,-0.3988 l 0,-8.4583 c 0,-0.3861 0.2376,-0.8379 0.5278,-1.0046"
       style="fill:#000000;fill-opacity:0.5;fill-rule:evenodd;stroke:none"
       id="path5118"
       inkscape:connector-curvature="0" /><path
       d="m 698.8623,445.8424 7.433,-4.3194 c 0.2895,-0.1684 0.2529,-0.4638 -0.0813,-0.6568 l -7.3253,-4.229 c -0.3342,-0.193 -0.8444,-0.2135 -1.1339,-0.0451 l -7.4327,4.3197 c -0.2894,0.1681 -0.2528,0.4635 0.0814,0.6565 l 7.3253,4.2293 c 0.3342,0.1928 0.8441,0.2132 1.1335,0.0448"
       style="fill:#ffffff;fill-opacity:0.8;fill-rule:evenodd;stroke:none"
       id="path5120"
       inkscape:connector-curvature="0" /><path
       d="m 759.4588,336.2734 -7.4574,-4.2771 c -0.2905,-0.1667 -0.528,0.0127 -0.528,0.3988 l 0,8.4583 c 0,0.3861 0.2375,0.8379 0.528,1.0043 l 7.4574,4.2772 c 0.2903,0.1667 0.5278,-0.0128 0.5278,-0.3988 l 0,-8.4583 c 0,-0.3858 -0.2375,-0.8377 -0.5278,-1.0044"
       style="fill:#ffffff;fill-opacity:0.5;fill-rule:evenodd;stroke:none"
       id="path5122"
       inkscape:connector-curvature="0" /><path
       d="m 742.7948,336.2905 7.4571,-4.2772 c 0.2906,-0.1664 0.5281,0.013 0.5281,0.3988 l 0,8.4586 c 0,0.3858 -0.2375,0.8376 -0.5281,1.0043 l -7.4571,4.2772 c -0.2905,0.1664 -0.5281,-0.0128 -0.5281,-0.3988 l 0,-8.4583 c 0,-0.3861 0.2376,-0.838 0.5281,-1.0046"
       style="fill:#000000;fill-opacity:0.5;fill-rule:evenodd;stroke:none"
       id="path5124"
       inkscape:connector-curvature="0" /><path
       d="m 751.6698,351.6951 7.4327,-4.3198 c 0.2894,-0.1683 0.2529,-0.4637 -0.0813,-0.6567 l -7.325,-4.2291 c -0.3345,-0.193 -0.8445,-0.2131 -1.1339,-0.045 l -7.433,4.3197 c -0.2894,0.1681 -0.2529,0.4635 0.0816,0.6565 l 7.325,4.2293 c 0.3342,0.193 0.8445,0.2131 1.1339,0.0451"
       style="fill:#ffffff;fill-opacity:0.8;fill-rule:evenodd;stroke:none"
       id="path5126"
       inkscape:connector-curvature="0" /><path
       d="m 525.7596,429.5752 -7.4574,-4.2772 c -0.2905,-0.1666 -0.5281,0.0128 -0.5281,0.3989 l 0,8.4583 c 0,0.3861 0.2376,0.8379 0.5281,1.0043 l 7.4574,4.2772 c 0.2903,0.1667 0.5278,-0.0128 0.5278,-0.3988 l 0,-8.4583 c 0,-0.3858 -0.2375,-0.838 -0.5278,-1.0044"
       style="fill:#ffffff;fill-opacity:0.5;fill-rule:evenodd;stroke:none"
       id="path5128"
       inkscape:connector-curvature="0" /><path
       d="m 509.0956,429.5923 7.4571,-4.2772 c 0.2905,-0.1664 0.5281,0.013 0.5281,0.3988 l 0,8.4583 c 0,0.3861 -0.2376,0.8379 -0.5281,1.0046 l -7.4571,4.2772 c -0.2906,0.1664 -0.5281,-0.0131 -0.5281,-0.3989 l 0,-8.4582 c 0,-0.3861 0.2375,-0.838 0.5281,-1.0046"
       style="fill:#000000;fill-opacity:0.5;fill-rule:evenodd;stroke:none"
       id="path5130"
       inkscape:connector-curvature="0" /><path
       d="m 517.9706,444.9966 7.4327,-4.3195 c 0.2894,-0.1683 0.2528,-0.4637 -0.0814,-0.6568 l -7.325,-4.229 c -0.3345,-0.193 -0.8444,-0.2134 -1.1338,-0.045 l -7.4331,4.3197 c -0.2894,0.1681 -0.2528,0.4634 0.0814,0.6565 l 7.3253,4.2293 c 0.3342,0.1927 0.8444,0.2131 1.1339,0.0448"
       style="fill:#ffffff;fill-opacity:0.8;fill-rule:evenodd;stroke:none"
       id="path5132"
       inkscape:connector-curvature="0" /><path
       d="m 561.7244,498.3727 -7.4573,-4.2772 c -0.2903,-0.1667 -0.5279,0.0127 -0.5279,0.3988 l 0,8.4583 c 0,0.3861 0.2376,0.8379 0.5279,1.0043 l 7.4573,4.2772 c 0.2906,0.1667 0.5281,-0.0127 0.5281,-0.3985 l 0,-8.4586 c 0,-0.3858 -0.2375,-0.8377 -0.5281,-1.0043"
       style="fill:#ffffff;fill-opacity:0.5;fill-rule:evenodd;stroke:none"
       id="path5134"
       inkscape:connector-curvature="0" /><path
       d="m 545.0604,498.39 7.4574,-4.2772 c 0.2903,-0.1667 0.5278,0.0127 0.5278,0.3985 l 0,8.4586 c 0,0.3858 -0.2375,0.8376 -0.5278,1.0043 l -7.4574,4.2772 c -0.2903,0.1664 -0.5278,-0.0128 -0.5278,-0.3988 l 0,-8.4583 c 0,-0.3861 0.2375,-0.838 0.5278,-1.0043"
       style="fill:#000000;fill-opacity:0.5;fill-rule:evenodd;stroke:none"
       id="path5136"
       inkscape:connector-curvature="0" /><path
       d="m 553.9354,513.7943 7.433,-4.3197 c 0.2894,-0.1684 0.2529,-0.4638 -0.0813,-0.6568 l -7.3253,-4.229 c -0.3342,-0.1931 -0.8445,-0.2132 -1.1339,-0.0451 l -7.4327,4.3197 c -0.2894,0.1681 -0.2529,0.4635 0.0813,0.6565 l 7.325,4.2293 c 0.3342,0.193 0.8445,0.2132 1.1339,0.0451"
       style="fill:#ffffff;fill-opacity:0.8;fill-rule:evenodd;stroke:none"
       id="path5138"
       inkscape:connector-curvature="0" /></g></svg>